<?xml version="1.0" standalone="no"?>
<!DOCTYPE svg PUBLIC "-//W3C//DTD SVG 20010904//EN"
 "http://www.w3.org/TR/2001/REC-SVG-20010904/DTD/svg10.dtd">
<svg version="1.0" xmlns="http://www.w3.org/2000/svg"
 width="1587.000000pt" height="1587.000000pt" viewBox="0 0 1587.000000 1587.000000"
 preserveAspectRatio="xMidYMid meet">
<metadata>
Created by potrace 1.11, written by Peter Selinger 2001-2013
</metadata>
<g transform="translate(0.000000,1587.000000) scale(0.100000,-0.100000)"
fill="#000000" stroke="none">
<path d="M10374 11411 c-9 -10 -33 -64 -55 -120 -39 -104 -51 -130 -255 -531
-342 -672 -624 -1293 -833 -1830 -40 -102 -76 -194 -81 -205 -37 -83 -77 -222
-69 -242 18 -48 77 -51 99 -5 7 15 38 99 70 187 124 343 304 771 515 1220 159
341 374 779 482 985 42 80 94 181 116 225 l40 80 36 -110 c20 -61 54 -137 75
-170 60 -92 479 -641 624 -815 30 -36 73 -87 95 -115 213 -256 307 -346 726
-704 50 -42 134 -119 265 -245 28 -26 242 -238 476 -470 420 -417 538 -526
565 -526 8 0 21 13 29 29 14 27 14 31 -6 57 -29 37 -235 249 -574 588 -497
497 -553 549 -849 796 -300 251 -483 452 -881 970 -278 361 -374 492 -404 554
-16 33 -50 132 -75 220 -24 87 -52 167 -61 177 -22 24 -50 24 -70 0z"/>
<path d="M3550 11088 c-12 -13 -55 -90 -97 -173 -231 -457 -434 -819 -767
-1363 -185 -304 -249 -424 -330 -630 -95 -238 -126 -341 -114 -368 21 -45 76
-43 98 4 6 15 35 90 62 167 59 164 154 383 203 467 19 32 35 61 35 63 0 2 71
119 157 262 162 266 327 544 371 623 178 319 205 368 317 585 43 83 81 154 85
158 4 5 22 -51 39 -123 47 -194 85 -307 162 -478 297 -658 727 -1276 1280
-1843 108 -110 132 -126 164 -109 33 17 37 44 11 78 -11 16 -89 103 -172 193
-498 539 -806 972 -1080 1519 -158 316 -177 365 -259 685 -58 226 -77 284 -98
297 -21 14 -46 8 -67 -14z"/>
<path d="M623 7728 c-38 -18 -42 -80 -17 -229 55 -318 234 -634 533 -943 127
-130 267 -243 382 -309 97 -57 288 -167 474 -274 685 -397 1595 -715 2675
-934 262 -53 702 -133 845 -154 22 -4 76 -13 120 -20 65 -12 462 -70 615 -90
64 -8 304 -34 375 -40 39 -3 99 -8 135 -11 110 -9 375 -12 1617 -18 1284 -7
1905 -12 2533 -22 531 -9 828 -9 1050 -1 202 8 223 9 450 38 209 26 209 26
341 59 244 60 437 149 966 443 391 218 555 315 758 450 326 217 571 423 685
578 27 36 68 105 92 155 l43 89 6 175 c4 96 10 187 14 201 14 51 -61 82 -98
41 -23 -25 -27 -54 -31 -232 -3 -141 -6 -160 -29 -212 -107 -238 -424 -510
-1007 -863 -220 -134 -622 -360 -915 -514 -166 -88 -359 -163 -516 -201 -103
-25 -290 -57 -384 -65 -38 -4 -81 -9 -95 -11 -125 -20 -917 -25 -1685 -11
-225 4 -855 9 -1400 12 -1789 9 -2415 17 -2485 30 -14 2 -61 7 -105 10 -44 3
-96 7 -115 10 -19 2 -53 7 -75 10 -107 13 -294 37 -325 41 -36 5 -41 6 -150
23 -36 6 -83 13 -105 16 -423 64 -1149 199 -1475 276 -740 174 -1378 392
-1925 659 -177 86 -256 130 -485 265 -85 51 -195 113 -245 140 -173 92 -301
191 -460 357 -157 162 -271 321 -363 503 -83 166 -118 285 -137 470 -10 90
-36 123 -82 103z"/>
</g>
</svg>
